<svg 
xmlns:mydata="http://www.w3.org/2000/svg" 
mydata:contrastcolor="ffffff" 
mydata:template="Contrast" 
mydata:presentation="2.5" 
mydata:layouttype="undefined" 
mydata:specialfontid="undefined" 
mydata:id1="928" 
mydata:id2="674" 
mydata:companyname="SKL SOFTWARE" 
mydata:companytagline="" 
version="1.1" 
xmlns="http://www.w3.org/2000/svg" 
xmlns:xlink="http://www.w3.org/1999/xlink" 
viewBox="0 0 550 470"
>
<g 
fill="#000000" 
fill-rule="none" 
stroke="none" 
stroke-width="1" 
stroke-linecap="butt" 
stroke-linejoin="miter" 
stroke-miterlimit="10" 
stroke-dasharray="" 
stroke-dashoffset="0" 
font-family="none" 
font-weight="none" 
font-size="none" 
text-anchor="none" 
style="mix-blend-mode: normal"
>
<g 
data-paper-data="{&quot;isGlobalGroup&quot;:true,&quot;bounds&quot;:{&quot;x&quot;:65,&quot;y&quot;:161.5405358290682,&quot;width&quot;:420,&quot;height&quot;:146.91892834186356}}"
>
<g 
data-paper-data="{&quot;isPrimaryText&quot;:true}" fill-rule="nonzero"><path d="M73.3142,297.35096h14.5007c4.65961,0 4.5105,5.66608 0,5.70336h-20.83777v5.40515h23.89448l-0.03728,-0.03728c5.25604,-0.44732 7.86542,-4.13773 7.93997,-7.86542c0.07455,-4.06318 -2.94487,-8.16364 -8.98373,-8.16364h-14.16521c-4.28684,0 -4.13773,-5.03238 0,-5.03238h21.32237v-4.9951h-24.64001l0.03728,0.03728c-4.84599,0.41005 -7.26899,3.80224 -7.34354,7.23171c-0.07455,3.76496 2.72121,7.67904 8.31274,7.71631z" 
data-paper-data="{&quot;glyphName&quot;:&quot;S&quot;,&quot;glyphIndex&quot;:0,&quot;firstGlyphOfWord&quot;:true,&quot;word&quot;:1}" fill="#000000"></path><path d="M124.94267,308.45946h8.8719l-14.16521,-14.16521l11.96588,-11.9286h-8.8719l-11.96588,11.9286zM110.62835,308.45946v-26.09381h-7.71631v26.09381z" 
data-paper-data="{&quot;glyphName&quot;:&quot;K&quot;,&quot;glyphIndex&quot;:1,&quot;word&quot;:1}" fill="#000000"></path><path d="M136.4985,297.53734c0,6.67256 5.62881,10.92212 12.63686,10.92212h16.70004v-5.44242h-15.84267c-3.76496,0 -5.77792,-2.16206 -5.77792,-5.4797v-15.17169h-7.71631z" 
data-paper-data="{&quot;glyphName&quot;:&quot;L&quot;,&quot;glyphIndex&quot;:2,&quot;lastGlyphOfWord&quot;:true,&quot;word&quot;:1}" fill="#000000"></path><path d="M196.36516,297.35096h14.5007c4.65961,0 4.5105,5.66608 0,5.70336h-20.83777v5.40515h23.89448l-0.03728,-0.03728c5.25604,-0.44732 7.86542,-4.13773 7.93997,-7.86542c0.07455,-4.06318 -2.94487,-8.16364 -8.98373,-8.16364h-14.16521c-4.28684,0 -4.13773,-5.03238 0,-5.03238h21.32237v-4.9951h-24.64001l0.03728,0.03728c-4.84599,0.41005 -7.26899,3.80224 -7.34354,7.23171c-0.07455,3.76496 2.72121,7.67904 8.31274,7.71631z" 
data-paper-data="{&quot;glyphName&quot;:&quot;S&quot;,&quot;glyphIndex&quot;:3,&quot;firstGlyphOfWord&quot;:true,&quot;word&quot;:2}" fill="#000000"></path><path d="M225.963,297.05274c0,6.63528 4.43595,11.40672 13.30784,11.40672h7.79087c8.8719,0 13.30784,-4.77144 13.30784,-11.40672v-3.28036c0,-6.63528 -4.43595,-11.40672 -13.30784,-11.40672h-7.79087c-8.8719,0 -13.30784,4.77144 -13.30784,11.40672zM240.91102,287.39803h4.47322c5.25604,0 7.26899,1.97567 7.26899,6.52345v2.98215c0,4.5105 -2.01295,6.52345 -7.26899,6.52345h-4.47322c-5.21876,0 -7.23171,-2.01295 -7.23171,-6.52345v-2.98215c0,-4.54778 2.01295,-6.52345 7.23171,-6.52345z" 
data-paper-data="{&quot;glyphName&quot;:&quot;O&quot;,&quot;glyphIndex&quot;:4,&quot;word&quot;:2}" fill="#000000"></path><path d="M264.88005,308.45946h7.71631v-10.69846h21.62059v-5.29332h-21.62059v-1.26741c0,-2.01295 1.30469,-3.3922 3.98863,-3.3922h18.48933v-5.44242h-19.53308c-6.52345,0 -10.66119,4.47322 -10.66119,10.92212z" 
data-paper-data="{&quot;glyphName&quot;:&quot;F&quot;,&quot;glyphIndex&quot;:5,&quot;word&quot;:2}" fill="#000000"></path><path d="M298.72746,282.36565v5.44242h10.92212v20.65139h7.49265v-20.65139h10.92212v-5.44242z" 
data-paper-data="{&quot;glyphName&quot;:&quot;T&quot;,&quot;glyphIndex&quot;:6,&quot;word&quot;:2}" fill="#000000"></path><path d="M331.8666,282.36565l9.13283,26.09381h10.40025l5.92702,-16.96098l5.92702,16.96098h10.40025l9.09556,-26.09381h-7.56721l-6.74711,19.27214l-6.70984,-19.27214h-8.79734l-6.74711,19.27214l-6.70984,-19.27214z" 
data-paper-data="{&quot;glyphName&quot;:&quot;W&quot;,&quot;glyphIndex&quot;:7,&quot;word&quot;:2}" fill="#000000"></path><path d="M380.36381,308.45946h8.16364c0,0 4.36139,-11.48128 7.19444,-17.8929c0.78281,-1.75201 1.67746,-2.19934 3.87679,-2.19934c2.19934,0 3.09398,0.44732 3.87679,2.19934c2.83304,6.41162 7.19444,17.8929 7.19444,17.8929h8.16364c0,0 -6.48618,-16.55093 -9.17011,-21.95608c-1.71474,-3.46675 -4.06318,-4.13773 -7.75359,-4.13773h-4.62233c-3.69041,0 -6.03885,0.67098 -7.75359,4.13773c-2.68393,5.40515 -9.17011,21.95608 -9.17011,21.95608z" 
data-paper-data="{&quot;glyphName&quot;:&quot;A&quot;,&quot;glyphIndex&quot;:8,&quot;word&quot;:2}" fill="#000000"></path><path d="M421.18199,282.36565l0.07455,26.09381h7.75359v-0.14911l-0.07455,-20.83777h10.77302c2.19934,0 3.3922,1.41652 3.3922,3.24309v0.59643c0,1.9384 -1.19286,3.24309 -3.3922,3.24309h-9.39377l13.94155,13.90427h8.46185l-8.83462,-8.83462c3.80224,-0.29821 6.70984,-2.72121 6.70984,-6.41162v-4.39867c0,-3.80224 -3.31764,-6.4489 -7.49265,-6.4489z" 
data-paper-data="{&quot;glyphName&quot;:&quot;R&quot;,&quot;glyphIndex&quot;:9,&quot;word&quot;:2}" fill="#000000"></path><path d="M454.80573,297.53734c0,6.48618 4.13773,10.92212 10.69846,10.92212h19.49581v-5.44242h-18.48933c-2.27389,0 -3.98863,-1.49107 -3.98863,-4.10046v-1.15558h21.62059v-5.29332h-21.62059v-1.26741c0,-2.01295 1.30469,-3.3922 3.98863,-3.3922h18.48933v-5.44242h-19.53308c-6.52345,0 -10.66119,4.47322 -10.66119,10.92212z" 
data-paper-data="{&quot;glyphName&quot;:&quot;E&quot;,&quot;glyphIndex&quot;:10,&quot;lastGlyphOfWord&quot;:true,&quot;word&quot;:2}" fill="#000000"></path></g><g 
data-paper-data="{&quot;fillRule&quot;:&quot;evenodd&quot;,&quot;fillRuleOriginal&quot;:&quot;evenodd&quot;,&quot;isIcon&quot;:true,&quot;iconStyle&quot;:&quot;standalone&quot;,&quot;selectedEffects&quot;:{&quot;container&quot;:&quot;&quot;,&quot;transformation&quot;:&quot;&quot;,&quot;pattern&quot;:&quot;&quot;},&quot;bounds&quot;:{&quot;x&quot;:206.0152218791466,&quot;y&quot;:161.5405358290682,&quot;width&quot;:137.96955624170684,&quot;height&quot;:101.66177755720733},&quot;iconType&quot;:&quot;icon&quot;,&quot;isDetailed&quot;:false,&quot;source&quot;:&quot;noun&quot;,&quot;rawIconId&quot;:&quot;4039197&quot;,&quot;suitableAsStandaloneIcon&quot;:true}" fill-rule="evenodd"><path d="M269.33598,263.20231h-14.37788l25.70591,-101.66178h14.37788zM249.87502,242.57949l-43.8598,-22.65606v-15.10404l43.8598,-22.65606v15.68496l-27.88437,14.52311l27.88437,14.52311zM300.12498,197.84831v-15.68496l43.8598,22.65606v15.10404l-43.8598,22.65606v-15.68496l27.88437,-14.52311z" 
data-paper-data="{&quot;isPathIcon&quot;:true}" fill="#00fbff"></path>
</g>
</g>
</g>
</svg>